<svg xmlns="http://www.w3.org/2000/svg" xmlns:xlink="http://www.w3.org/1999/xlink" width="500" zoomAndPan="magnify" viewBox="0 0 375 374.999991" height="500" preserveAspectRatio="xMidYMid meet" version="1.0"><defs><g/><clipPath id="59b844dae7"><path d="M 15 0 L 360 0 C 363.976562 0 367.792969 1.582031 370.605469 4.394531 C 373.417969 7.207031 375 11.023438 375 15 L 375 360 C 375 363.976562 373.417969 367.792969 370.605469 370.605469 C 367.792969 373.417969 363.976562 375 360 375 L 15 375 C 11.023438 375 7.207031 373.417969 4.394531 370.605469 C 1.582031 367.792969 0 363.976562 0 360 L 0 15 C 0 11.023438 1.582031 7.207031 4.394531 4.394531 C 7.207031 1.582031 11.023438 0 15 0 Z M 15 0 " clip-rule="nonzero"/></clipPath></defs><g clip-path="url(#59b844dae7)"><rect x="-37.5" width="450" fill="#02811f" y="-37.499999" height="449.999989" fill-opacity="1"/></g><g fill="#f9f9f9" fill-opacity="1"><g transform="translate(70.002473, 154.073119)"><g><path d="M 36.09375 1 C 26.425781 1 18.859375 -1.347656 13.390625 -6.046875 C 7.929688 -10.742188 5.035156 -17.460938 4.703125 -26.203125 C 4.628906 -28.066406 4.59375 -31.097656 4.59375 -35.296875 C 4.59375 -39.492188 4.628906 -42.5625 4.703125 -44.5 C 4.960938 -52.894531 7.875 -59.410156 13.4375 -64.046875 C 19.007812 -68.679688 26.5625 -71 36.09375 -71 C 42.5 -71 48.082031 -69.960938 52.84375 -67.890625 C 57.613281 -65.828125 61.25 -63.175781 63.75 -59.9375 C 66.25 -56.707031 67.566406 -53.394531 67.703125 -50 C 67.703125 -49.394531 67.484375 -48.875 67.046875 -48.4375 C 66.617188 -48.007812 66.101562 -47.796875 65.5 -47.796875 L 50 -47.796875 C 49.332031 -47.796875 48.816406 -47.910156 48.453125 -48.140625 C 48.085938 -48.378906 47.738281 -48.734375 47.40625 -49.203125 C 46.601562 -51.066406 45.316406 -52.664062 43.546875 -54 C 41.785156 -55.332031 39.300781 -56 36.09375 -56 C 28.363281 -56 24.363281 -52 24.09375 -44 C 24.03125 -42.132812 24 -39.269531 24 -35.40625 C 24 -31.53125 24.03125 -28.628906 24.09375 -26.703125 C 24.363281 -18.234375 28.429688 -14 36.296875 -14 C 40.160156 -14 43.226562 -14.960938 45.5 -16.890625 C 47.769531 -18.828125 48.90625 -21.765625 48.90625 -25.703125 L 48.90625 -27.5 L 40 -27.5 C 39.269531 -27.5 38.65625 -27.75 38.15625 -28.25 C 37.65625 -28.75 37.40625 -29.363281 37.40625 -30.09375 L 37.40625 -37.90625 C 37.40625 -38.632812 37.65625 -39.25 38.15625 -39.75 C 38.65625 -40.25 39.269531 -40.5 40 -40.5 L 65.40625 -40.5 C 66.132812 -40.5 66.75 -40.25 67.25 -39.75 C 67.75 -39.25 68 -38.632812 68 -37.90625 L 68 -26.296875 C 68 -20.628906 66.679688 -15.742188 64.046875 -11.640625 C 61.410156 -7.546875 57.691406 -4.414062 52.890625 -2.25 C 48.097656 -0.0820312 42.5 1 36.09375 1 Z M 36.09375 1 "/></g></g></g><g fill="#f9f9f9" fill-opacity="1"><g transform="translate(228.693798, 154.073119)"><g><path d="M 9.296875 0 C 8.628906 0 8.046875 -0.25 7.546875 -0.75 C 7.046875 -1.25 6.796875 -1.832031 6.796875 -2.5 L 6.796875 -67.40625 C 6.796875 -68.132812 7.03125 -68.75 7.5 -69.25 C 7.96875 -69.75 8.566406 -70 9.296875 -70 L 36.796875 -70 C 45.597656 -70 52.484375 -68 57.453125 -64 C 62.421875 -60 64.90625 -54.363281 64.90625 -47.09375 C 64.90625 -42.425781 63.820312 -38.457031 61.65625 -35.1875 C 59.488281 -31.925781 56.503906 -29.394531 52.703125 -27.59375 L 66.203125 -3.203125 C 66.398438 -2.796875 66.5 -2.425781 66.5 -2.09375 C 66.5 -1.5625 66.296875 -1.078125 65.890625 -0.640625 C 65.492188 -0.210938 65 0 64.40625 0 L 50.296875 0 C 48.367188 0 47.003906 -0.898438 46.203125 -2.703125 L 35.203125 -24.40625 L 25.59375 -24.40625 L 25.59375 -2.5 C 25.59375 -1.769531 25.34375 -1.171875 24.84375 -0.703125 C 24.34375 -0.234375 23.726562 0 23 0 Z M 36.703125 -39.09375 C 39.566406 -39.09375 41.75 -39.8125 43.25 -41.25 C 44.75 -42.6875 45.5 -44.671875 45.5 -47.203125 C 45.5 -49.734375 44.75 -51.765625 43.25 -53.296875 C 41.75 -54.828125 39.566406 -55.59375 36.703125 -55.59375 L 25.59375 -55.59375 L 25.59375 -39.09375 Z M 36.703125 -39.09375 "/></g></g></g><g fill="#f9f9f9" fill-opacity="1"><g transform="translate(221.893994, 288.426852)"><g><path d="M 9.40625 0 C 8.664062 0 8.046875 -0.234375 7.546875 -0.703125 C 7.046875 -1.171875 6.796875 -1.769531 6.796875 -2.5 L 6.796875 -67.40625 C 6.796875 -68.132812 7.046875 -68.75 7.546875 -69.25 C 8.046875 -69.75 8.664062 -70 9.40625 -70 L 20.703125 -70 C 22.367188 -70 23.566406 -69.265625 24.296875 -67.796875 L 41.5 -37 L 58.796875 -67.796875 C 59.535156 -69.265625 60.738281 -70 62.40625 -70 L 73.703125 -70 C 74.429688 -70 75.046875 -69.75 75.546875 -69.25 C 76.046875 -68.75 76.296875 -68.132812 76.296875 -67.40625 L 76.296875 -2.5 C 76.296875 -1.769531 76.046875 -1.171875 75.546875 -0.703125 C 75.046875 -0.234375 74.429688 0 73.703125 0 L 61 0 C 60.332031 0 59.75 -0.25 59.25 -0.75 C 58.75 -1.25 58.5 -1.832031 58.5 -2.5 L 58.5 -38.90625 L 47.703125 -19.09375 C 46.835938 -17.5625 45.671875 -16.796875 44.203125 -16.796875 L 38.796875 -16.796875 C 37.460938 -16.796875 36.296875 -17.5625 35.296875 -19.09375 L 24.59375 -38.90625 L 24.59375 -2.5 C 24.59375 -1.769531 24.34375 -1.171875 23.84375 -0.703125 C 23.34375 -0.234375 22.726562 0 22 0 Z M 9.40625 0 "/></g></g></g><g fill="#f9f9f9" fill-opacity="1"><g transform="translate(72.10013, 288.426852)"><g><path d="M 34 1 C 27.53125 1 22.0625 0.015625 17.59375 -1.953125 C 13.132812 -3.921875 9.820312 -6.570312 7.65625 -9.90625 C 5.488281 -13.238281 4.40625 -16.96875 4.40625 -21.09375 C 4.40625 -24.5625 5.285156 -27.710938 7.046875 -30.546875 C 8.816406 -33.378906 11.132812 -35.5625 14 -37.09375 C 9.269531 -40.164062 6.90625 -44.769531 6.90625 -50.90625 C 6.90625 -56.832031 9.1875 -61.660156 13.75 -65.390625 C 18.3125 -69.128906 25.0625 -71 34 -71 C 42.863281 -71 49.546875 -69.148438 54.046875 -65.453125 C 58.546875 -61.753906 60.796875 -56.9375 60.796875 -51 C 60.796875 -44.9375 58.53125 -40.300781 54 -37.09375 C 56.9375 -35.695312 59.285156 -33.566406 61.046875 -30.703125 C 62.816406 -27.835938 63.703125 -24.601562 63.703125 -21 C 63.703125 -16.863281 62.597656 -13.144531 60.390625 -9.84375 C 58.191406 -6.550781 54.859375 -3.921875 50.390625 -1.953125 C 45.929688 0.015625 40.46875 1 34 1 Z M 34 -42.296875 C 36.800781 -42.367188 39.097656 -43.117188 40.890625 -44.546875 C 42.691406 -45.984375 43.59375 -47.800781 43.59375 -50 C 43.59375 -52.269531 42.691406 -54.117188 40.890625 -55.546875 C 39.097656 -56.984375 36.800781 -57.703125 34 -57.703125 C 31.132812 -57.703125 28.816406 -56.984375 27.046875 -55.546875 C 25.285156 -54.117188 24.40625 -52.269531 24.40625 -50 C 24.40625 -47.726562 25.285156 -45.875 27.046875 -44.4375 C 28.816406 -43.007812 31.132812 -42.296875 34 -42.296875 Z M 34 -12.203125 C 37.132812 -12.203125 39.71875 -13 41.75 -14.59375 C 43.78125 -16.195312 44.796875 -18.332031 44.796875 -21 C 44.796875 -23.664062 43.78125 -25.796875 41.75 -27.390625 C 39.71875 -28.992188 37.132812 -29.796875 34 -29.796875 C 30.863281 -29.796875 28.257812 -28.992188 26.1875 -27.390625 C 24.125 -25.796875 23.09375 -23.664062 23.09375 -21 C 23.09375 -18.332031 24.125 -16.195312 26.1875 -14.59375 C 28.257812 -13 30.863281 -12.203125 34 -12.203125 Z M 34 -12.203125 "/></g></g></g></svg>